HIERARCHY
ROOT SpineBase
{
  OFFSET 0.000000 0.000000 0.000000
  CHANNELS 6 Xposition Yposition Zposition Zrotation Xrotation Yrotation
  JOINT SpineMid
  {
    OFFSET -0.000000 32.126547 0.000000
    CHANNELS 3 Zrotation Xrotation Yrotation
    JOINT SpineShoulder
    {
      OFFSET 0.167669 23.759992 -0.683542
      CHANNELS 3 Zrotation Xrotation Yrotation
      JOINT Neck
      {
        OFFSET 0.125558 7.831594 -0.542713
        CHANNELS 3 Zrotation Xrotation Yrotation
        JOINT Head
        {
          OFFSET 6.185859 11.971970 2.735651
          CHANNELS 3 Zrotation Xrotation Yrotation
          End Site
          {
            OFFSET 0 0 0
          }
        }
      }
      JOINT ShoulderLeft
      {
        OFFSET -6.930972 -3.273015 -12.267373
        CHANNELS 3 Zrotation Xrotation Yrotation
        JOINT ElbowLeft
        {
          OFFSET -5.150821 -21.045007 -8.501167
          CHANNELS 3 Zrotation Xrotation Yrotation
          JOINT WristLeft
          {
            OFFSET -0.055510 -26.276139 -3.421942
            CHANNELS 3 Zrotation Xrotation Yrotation
            JOINT HandLeft
            {
              OFFSET 0.481859 -7.711320 0.682585
              CHANNELS 3 Zrotation Xrotation Yrotation
              JOINT HandTipLeft
              {
                OFFSET -0.341133 -6.280516 -0.007005
                CHANNELS 3 Zrotation Xrotation Yrotation
                End Site
                {
                  OFFSET 0 0 0
                }
              }
              JOINT ThumbLeft
              {
                OFFSET 2.976238 -0.977338 0.137908
                CHANNELS 3 Zrotation Xrotation Yrotation
                End Site
                {
                  OFFSET 0 0 0
                }
              }
            }
          }
        }
      }
      JOINT ShoulderRight
      {
        OFFSET 6.890863 -6.437014 19.424022
        CHANNELS 3 Zrotation Xrotation Yrotation
        JOINT ElbowRight
        {
          OFFSET 0.084959 -21.373909 3.182880
          CHANNELS 3 Zrotation Xrotation Yrotation
          JOINT WristRight
          {
            OFFSET 4.240477 -28.397756 -7.355615
            CHANNELS 3 Zrotation Xrotation Yrotation
            JOINT HandRight
            {
              OFFSET 0.531379 -6.650154 -0.286780
              CHANNELS 3 Zrotation Xrotation Yrotation
              JOINT HandTipRight
              {
                OFFSET -0.071561 -4.725135 -2.909589
                CHANNELS 3 Zrotation Xrotation Yrotation
                End Site
                {
                  OFFSET 0 0 0
                }
              }
              JOINT ThumbRight
              {
                OFFSET -0.902215 0.251081 -4.201664
                CHANNELS 3 Zrotation Xrotation Yrotation
                End Site
                {
                  OFFSET 0 0 0
                }
              }
            }
          }
        }
      }
    }
  }
  JOINT HipLeft
  {
    OFFSET -2.084706 1.968288 -9.688443
    CHANNELS 3 Zrotation Xrotation Yrotation
    JOINT KneeLeft
    {
      OFFSET -9.934006 -31.253707 -4.052178
      CHANNELS 3 Zrotation Xrotation Yrotation
      JOINT AnkleLeft
      {
        OFFSET -10.516738 -33.157919 2.209165
        CHANNELS 3 Zrotation Xrotation Yrotation
        JOINT FootLeft
        {
          OFFSET 11.789210 -4.180031 -9.840200
          CHANNELS 3 Zrotation Xrotation Yrotation
          End Site
          {
            OFFSET 0 0 0
          }
        }
      }
    }
  }
  JOINT HipRight
  {
    OFFSET 3.736578 -0.518746 2.754142
    CHANNELS 3 Zrotation Xrotation Yrotation
    JOINT KneeRight
    {
      OFFSET -4.496787 -35.759358 0.643214
      CHANNELS 3 Zrotation Xrotation Yrotation
      JOINT AnkleRight
      {
        OFFSET -5.388693 -28.855731 2.835261
        CHANNELS 3 Zrotation Xrotation Yrotation
        JOINT FootRight
        {
          OFFSET 10.193001 -4.620431 -7.447085
          CHANNELS 3 Zrotation Xrotation Yrotation
          End Site
          {
            OFFSET 0 0 0
          }
        }
      }
    }
  }
}
MOTION
Frames: 10
Frame Time: 0.033333
-76.272643 70.303284 316.992514 0.000000 0.000000 -64.927380 -0.000000 -0.000000 64.927380 -0.000000 0.000000 0.000000 -0.000000 0.000000 0.000000 0.000000 0.000000 0.000000 -0.000000 0.000000 0.000000 -0.000000 0.000000 0.000000 -0.000000 0.000000 0.000000 -0.000000 0.000000 0.000000 0.000000 0.000000 0.000000 0.000000 0.000000 0.000000 -0.000000 0.000000 0.000000 -0.000000 0.000000 0.000000 -0.000000 0.000000 0.000000 -0.000000 0.000000 0.000000 0.000000 0.000000 0.000000 0.000000 0.000000 0.000000 -0.000000 -0.000000 64.927380 -0.000000 0.000000 0.000000 -0.000000 0.000000 0.000000 0.000000 0.000000 0.000000 -0.000000 -0.000000 64.927380 -0.000000 0.000000 0.000000 -0.000000 0.000000 0.000000 0.000000 0.000000 0.000000
-75.627580 70.527551 317.573096 0.014753 0.445280 -62.712622 0.388966 -0.217250 62.713302 -0.000000 0.000000 0.000000 0.527946 -2.263347 1.066727 0.000000 0.000000 0.000000 -1.147843 -0.160067 0.500314 3.904877 1.733221 -0.908497 4.347958 1.426790 1.149391 -2.143223 -3.247643 -0.719437 0.000000 0.000000 0.000000 0.000000 0.000000 0.000000 -0.000000 0.000000 0.000000 -1.984082 -1.362605 0.288529 0.570356 2.459065 -0.138901 0.628445 -4.021483 0.365821 0.000000 0.000000 0.000000 0.000000 0.000000 0.000000 0.016572 0.783740 62.370497 -0.714173 -0.794129 0.339697 -3.392274 -3.533117 -2.469656 0.000000 0.000000 0.000000 -0.577207 -0.206477 62.593374 -0.525804 -0.765384 -0.006775 0.769066 0.509458 1.752787 0.000000 0.000000 0.000000
-75.049797 70.705068 318.084136 0.012043 0.845739 -60.833371 -0.012962 -0.048536 60.825982 -0.031884 0.000179 -0.011418 0.972032 -4.813917 1.937645 0.000000 0.000000 0.000000 -2.109101 -1.149812 0.934684 7.355936 3.172111 -1.786316 7.600103 2.596251 2.059908 -3.526118 -5.483717 -1.189273 0.000000 0.000000 0.000000 0.000000 0.000000 0.000000 -0.117477 0.013944 -0.007068 -3.534589 -3.466665 0.463407 1.312269 4.957078 -0.208354 0.822896 -8.162874 0.703765 0.000000 0.000000 0.000000 0.000000 0.000000 0.000000 0.121174 1.442604 60.208901 -0.928739 -0.295235 0.280430 -7.589101 -8.312447 -5.040107 0.000000 0.000000 0.000000 -1.059725 -0.335448 60.607750 -1.005959 -1.413491 -0.033995 1.435561 0.930648 3.264138 0.000000 0.000000 0.000000
-74.539295 70.835838 318.525633 -0.008489 1.198571 -59.278153 -0.018782 -0.068322 59.266975 -0.045414 -0.000966 -0.017320 1.239776 -6.385582 2.579417 0.000000 0.000000 0.000000 -2.960068 -1.642956 1.304945 10.293588 4.318141 -2.588726 9.652432 3.368312 2.747911 -4.014379 -6.641716 -1.473894 0.000000 0.000000 0.000000 0.000000 0.000000 0.000000 -0.187473 -0.131964 -0.016924 -4.864381 -4.791409 0.571317 2.053560 7.512300 -0.206788 0.728875 -12.342524 0.977090 0.000000 0.000000 0.000000 0.000000 0.000000 0.000000 0.284461 1.976904 58.427796 -1.128023 -0.367443 0.381261 -11.664578 -11.948092 -7.729179 0.000000 0.000000 0.000000 -1.446019 -0.403835 58.961307 -1.439478 -1.947494 -0.074372 2.006355 1.266603 4.537340 0.000000 0.000000 0.000000
-74.096074 70.919858 318.897588 -0.047049 1.501362 -58.034785 -0.023270 -0.085229 58.020055 -0.057218 -0.003120 -0.023270 1.354743 -7.457262 3.010953 0.000000 0.000000 0.000000 -3.666796 -2.073088 1.614288 12.670765 5.181037 -3.278090 10.562527 3.693005 3.238573 -3.619054 -6.750311 -1.647049 0.000000 0.000000 0.000000 0.000000 0.000000 0.000000 -0.260782 -0.374195 -0.030812 -5.859035 -5.815276 0.628786 2.677242 10.157667 -0.121931 0.434702 -16.482795 1.153392 0.000000 0.000000 0.000000 0.000000 0.000000 0.000000 0.483058 2.389886 57.012748 -1.152605 -0.389149 0.461093 -14.997785 -14.546921 -9.677544 0.000000 0.000000 0.000000 -1.736257 -0.424748 57.643417 -1.825869 -2.370173 -0.121832 2.487308 1.520443 5.576196 0.000000 0.000000 0.000000
-73.720134 70.957129 319.200000 -0.103680 1.752124 -57.091798 -0.025912 -0.099343 57.073909 -0.067217 -0.006383 -0.029211 1.313184 -8.054735 3.237298 0.000000 0.000000 0.000000 -4.224425 -2.435100 1.865609 14.451897 5.774129 -3.825099 10.440137 3.570543 3.543590 -2.401195 -5.874081 -1.774811 0.000000 0.000000 0.000000 0.000000 0.000000 0.000000 -0.333926 -0.702277 -0.048444 -6.485514 -6.525926 0.652988 3.094598 12.944484 0.065241 -0.005452 -20.530054 1.202621 0.000000 0.000000 0.000000 0.000000 0.000000 0.000000 0.699173 2.686188 55.950768 -1.003085 -0.360923 0.522143 -16.782703 -15.740104 -10.154516 0.000000 0.000000 0.000000 -1.931525 -0.407880 56.643595 -2.165159 -2.683782 -0.171455 2.883346 1.695054 6.384475 0.000000 0.000000 0.000000
-73.535001 70.925166 319.378991 -0.265837 1.961135 -56.449768 -0.022930 -0.091512 56.428870 -0.063201 -0.017265 -0.036985 0.911380 -7.795463 3.082110 0.000000 0.000000 0.000000 -4.782080 -2.587084 2.109607 16.387817 5.846411 -4.315381 8.053252 2.832240 3.623699 2.881645 -2.548342 -1.887247 0.000000 0.000000 0.000000 0.000000 0.000000 0.000000 -0.671139 -1.261594 -0.123421 -6.478854 -7.912757 0.492476 3.434569 20.685788 0.926453 -0.837138 -29.733484 0.460236 0.000000 0.000000 0.000000 0.000000 0.000000 0.000000 0.999198 2.926019 55.250207 -0.193835 -0.349152 0.636402 -17.690161 -15.701542 -9.574414 0.000000 0.000000 0.000000 -1.965113 -0.236549 55.968195 -2.435841 -2.973181 -0.199885 3.101445 1.867049 7.017981 0.000000 0.000000 0.000000
-73.300227 70.878825 319.471488 -0.382104 2.081276 -56.024106 -0.026840 -0.108546 56.000543 -0.071869 -0.016459 -0.044226 0.436936 -7.160136 2.781503 0.000000 0.000000 0.000000 -5.097390 -2.723913 2.280268 17.203212 5.825516 -4.563664 6.850089 2.076605 3.623388 5.110404 0.131123 -2.285107 0.000000 0.000000 0.000000 0.000000 0.000000 0.000000 -0.591085 -1.796537 -0.127877 -6.509407 -8.045695 0.453183 3.005604 23.413581 1.402623 -1.159628 -34.309356 0.155992 0.000000 0.000000 0.000000 0.000000 0.000000 0.000000 1.324619 3.024169 54.829744 0.365820 -0.162768 0.656273 -16.228257 -14.086551 -7.184062 0.000000 0.000000 0.000000 -1.954869 -0.132363 55.527717 -2.691681 -3.095253 -0.238594 3.326434 1.941804 7.399112 0.000000 0.000000 0.000000
-73.077234 70.798494 319.552374 -0.489240 2.256224 -55.945329 -0.006258 -0.141730 55.919290 -0.080279 -0.039491 -0.051095 0.120623 -6.768695 2.590863 0.000000 0.000000 0.000000 -5.050705 -2.905478 2.325740 16.465483 5.665021 -4.454416 4.340071 0.780782 3.199361 7.410406 2.821012 -2.428467 0.000000 0.000000 0.000000 0.000000 0.000000 0.000000 -0.403719 -2.179567 -0.109571 -5.999154 -7.617025 0.402952 2.170043 25.796139 1.958052 -1.802144 -34.485631 -0.081714 0.000000 0.000000 0.000000 0.000000 0.000000 0.000000 1.671891 2.894741 54.812448 0.843856 0.071462 0.615480 -10.337526 -8.694740 -2.297460 0.000000 0.000000 0.000000 -1.810768 -0.134259 55.445195 -2.881077 -3.059601 -0.281208 3.543409 1.856224 7.442605 0.000000 0.000000 0.000000
-72.871626 70.651883 319.658295 -0.523723 2.263009 -56.142900 -0.000682 -0.145405 56.116514 -0.086782 -0.039604 -0.053096 -0.319661 -5.929407 2.229086 0.000000 0.000000 0.000000 -4.667723 -3.145972 2.257862 14.271995 5.634584 -4.066838 1.560723 -0.364561 2.435200 8.424140 4.456637 -2.139637 0.000000 0.000000 0.000000 0.000000 0.000000 0.000000 0.734982 -2.141899 0.098899 -6.254643 -6.406501 0.320927 1.047798 26.386281 2.325348 -3.132458 -34.752853 -0.183187 0.000000 0.000000 0.000000 0.000000 0.000000 0.000000 1.664042 2.733644 55.061340 1.225033 0.255364 0.551008 -9.987420 -7.925714 -0.582626 0.000000 0.000000 0.000000 -1.686608 -0.137541 55.657387 -3.092098 -2.789814 -0.340948 3.763979 1.592392 7.221743 0.000000 0.000000 0.000000
